<svg width="456" height="456" viewBox="0 0 456 456" fill="none" xmlns="http://www.w3.org/2000/svg">
<circle cx="128" cy="104" r="50" fill="#F39C12"/>
<path d="M119.216 104C119.216 124.151 114.996 140.486 109.789 140.486C106.55 140.486 107.723 115.195 94.1338 116.304C91.8562 108.306 93.3396 99.5103 93.3396 91.8975C109.789 91.8975 104.583 67.5134 109.789 67.5134C114.996 67.5134 119.216 83.849 119.216 104Z" fill="#FAFAFA"/>
<rect x="83.4054" y="91.8376" width="20.9459" height="24.3243" fill="#FAFAFA"/>
<path d="M136.108 104.676C136.108 124.827 140.329 141.162 145.535 141.162C148.775 141.162 147.602 115.87 161.191 116.98C163.468 108.982 161.985 100.186 161.985 92.5732C145.535 92.5732 150.742 68.1892 145.535 68.1892C140.329 68.1892 136.108 84.5248 136.108 104.676Z" fill="#FAFAFA"/>
<rect width="20.946" height="24.3243" transform="matrix(-1 0 0 1 171.919 92.5134)" fill="#FAFAFA"/>
<path d="M157.054 93.1891C158.743 102.986 160.77 104.338 157.054 114.811C147.932 114.811 147.85 137.241 145.393 137.241C140.963 137.241 137.372 122.317 137.372 103.908C137.372 85.4983 140.963 70.5745 145.393 70.5745C149.823 70.5745 144.892 90.4864 157.054 93.1891Z" fill="#74B9FF"/>
<path d="M117.584 103.908C117.584 122.317 113.993 137.241 109.563 137.241C106.807 137.241 107.805 114.135 96.2433 115.149C94.3054 107.842 95.5676 99.8061 95.5676 92.8512C109.563 92.8512 105.133 70.5745 109.563 70.5745C113.993 70.5745 117.584 85.4983 117.584 103.908Z" fill="#74B9FF"/>
<rect x="152.646" y="92.8889" width="21.3889" height="22.2222" fill="#74B9FF"/>
<rect x="82.6578" y="92.8889" width="21.3889" height="22.2222" fill="#74B9FF"/>
<path d="M178 104C178 131.614 155.614 154 128 154C100.386 154 78 131.614 78 104C78 76.3858 100.386 54 128 54C155.614 54 178 76.3858 178 104ZM83.0031 104C83.0031 128.851 103.149 148.997 128 148.997C152.851 148.997 172.997 128.851 172.997 104C172.997 79.1489 152.851 59.0031 128 59.0031C103.149 59.0031 83.0031 79.1489 83.0031 104Z" fill="#74B9FF"/>
<path d="M257.37 300.22L233.11 322.52C220.634 333.396 205.976 341.477 190.12 346.22L196.56 376.26C196.889 377.793 197.574 379.227 198.56 380.446C199.545 381.666 200.804 382.636 202.234 383.279C203.663 383.923 205.224 384.221 206.791 384.15C208.357 384.079 209.884 383.64 211.25 382.87L250.3 360.85C255.797 357.511 260.091 352.511 262.563 346.572C265.034 340.634 265.555 334.064 264.05 327.81L257.37 300.22ZM152.66 241.76L173.54 216.96L147.5 210.68C141.168 208.471 134.249 208.628 128.024 211.122C121.798 213.616 116.685 218.279 113.63 224.25L91.63 263.25C90.8597 264.616 90.4213 266.143 90.3502 267.709C90.2791 269.276 90.5772 270.837 91.2206 272.266C91.8639 273.696 92.8344 274.955 94.0538 275.94C95.2731 276.926 96.7071 277.611 98.24 277.94L128.97 284.53C134.065 268.892 142.106 254.374 152.66 241.76ZM247.34 242.16C250.307 242.16 253.207 241.28 255.674 239.632C258.14 237.984 260.063 235.641 261.198 232.9C262.333 230.159 262.631 227.143 262.052 224.234C261.473 221.324 260.044 218.651 257.947 216.553C255.849 214.456 253.176 213.027 250.266 212.448C247.357 211.87 244.341 212.167 241.6 213.302C238.859 214.437 236.516 216.36 234.868 218.827C233.22 221.293 232.34 224.193 232.34 227.16C232.34 231.138 233.92 234.954 236.733 237.767C239.546 240.58 243.362 242.16 247.34 242.16Z" fill="#16A37D"/>
<path d="M306.01 174.62C305.56 172.907 304.662 171.343 303.409 170.091C302.157 168.838 300.594 167.94 298.88 167.49C278.368 162.16 256.767 162.733 236.566 169.143C216.365 175.552 198.386 187.539 184.7 203.72L152.66 241.76C136.657 260.845 126.504 284.145 123.42 308.86C123.22 310.38 123.373 311.925 123.865 313.376C124.357 314.827 125.177 316.146 126.26 317.23L157.26 348.23C158.19 349.16 159.293 349.897 160.508 350.4C161.723 350.903 163.025 351.161 164.34 351.16C164.627 351.162 164.914 351.148 165.2 351.12C190.298 349.046 214.082 339.028 233.1 322.52L269.74 288.84C285.978 275.187 298.005 257.205 304.424 236.985C310.843 216.765 311.4 195.138 306.01 174.62ZM247.34 242.16C244.373 242.16 241.473 241.28 239.006 239.632C236.54 237.984 234.617 235.641 233.482 232.9C232.346 230.159 232.049 227.143 232.628 224.234C233.207 221.324 234.636 218.651 236.733 216.553C238.831 214.456 241.504 213.027 244.414 212.448C247.323 211.87 250.339 212.167 253.08 213.302C255.821 214.437 258.164 216.36 259.812 218.827C261.46 221.293 262.34 224.193 262.34 227.16C262.34 231.138 260.76 234.954 257.947 237.767C255.134 240.58 251.318 242.16 247.34 242.16Z" fill="#F39C12"/>
</svg>
