<svg width="130" height="130" viewBox="0 0 130 130" fill="none" xmlns="http://www.w3.org/2000/svg">
<g clip-path="url(#clip0_1410_6043)">
<path d="M98.7778 -1H13.2222C9.98069 -1 6.87192 0.277877 4.57981 2.55251C2.28769 4.82715 1 7.91221 1 11.129L1 93H111V11.129C111 7.91221 109.712 4.82715 107.42 2.55251C105.128 0.277877 102.019 -1 98.7778 -1V-1Z" fill="#FAFAFA"/>
<path d="M100.267 56.3097C105.244 54.8952 105.244 52.7124 100.27 51.2948L98.5164 50.8118L96.7726 50.3006V50.3163L87.5517 47.5218L94.8375 41.4563H94.7936L96.3398 40.4464L97.8986 39.3205C101.948 36.1121 101.06 34.0328 95.9258 34.6224L93.9311 34.9015L91.9489 35.1838H91.9426L82.5994 36.247L88.1507 26.2736L89.1199 24.5236C91.6353 20.0074 90.0012 18.3671 85.488 20.8761L83.7379 21.7605L81.994 22.6387H81.9878L73.7517 27.3086L74.818 18.0691V18.0597L75.0689 16.0776L75.3104 14.0767C75.9001 8.95201 73.7673 8.07072 70.5557 12.1228L69.32 13.6878L62.2412 22.6261L59.6725 13.5906L59.6662 13.5749L58.5748 9.73294C57.1603 4.75569 54.8425 4.75569 53.4248 9.73294L52.8791 11.6523L52.3334 13.5749L49.7584 22.6261L43.9216 15.2559L43.9185 15.2528L42.6796 13.6878L41.4345 12.1165C38.226 8.07072 36.0901 8.95829 36.6829 14.0892L36.915 16.0776L37.1439 18.0597V18.0629L38.2291 27.4058L28.2649 21.8546L26.5179 20.8824C21.9984 18.364 20.3612 20.0011 22.8766 24.5205L23.8489 26.2642L29.4002 36.2281L20.057 35.143H20.0539L18.0717 34.914L16.0801 34.682C10.949 34.0892 10.0645 36.225 14.1073 39.4334L15.6786 40.6785L17.2437 41.9173L17.2468 41.9205L24.6173 47.7571L15.572 50.3351L13.6525 50.8808L11.7331 51.4265C6.75564 52.8441 6.75564 55.1587 11.7331 56.5762L15.5751 57.6677L15.5877 57.6739L24.6236 60.2425L15.6818 67.3242L14.1167 68.5662C10.0645 71.7746 10.9458 73.9135 16.0707 73.3239L18.0717 73.073L20.0539 72.819H20.0601L29.3062 71.7526L24.6361 79.9885V79.9948L23.7579 81.7385L22.8295 83.4886C20.3204 88.0048 21.9796 89.6357 26.496 87.1204L28.2523 86.1513L38.2417 80.6001L37.1816 89.943V89.9493L36.9307 91.9314L36.6892 93.9229C36.0964 99.057 38.2291 99.9383 41.4376 95.8894L42.6796 94.3212L43.9185 92.7531L49.7584 85.3766L52.3302 94.4247V94.4279L52.876 96.3473L53.4248 98.2698C54.8425 103.244 56.8905 103.244 58.3082 98.2667L59.1362 94.4279V94.4153L61.9746 85.3766L67.9494 92.7531L69.2541 94.3212L70.5306 95.8894C73.736 99.9352 75.8938 99.057 75.301 93.9292L75.0564 91.9314L74.818 89.9461V89.9367L73.7517 80.6942L81.9815 85.3641H81.9878L83.7347 86.2422L85.4848 87.1674C90.0012 89.6858 91.6415 88.0205 89.123 83.5074L88.2448 81.7479L87.3635 80.001V79.9948L82.6935 71.7526L91.9363 72.819H91.9458L93.9311 73.0699L95.9289 73.3114C101.057 73.9041 101.935 71.7683 97.8892 68.5599L96.321 67.318L94.7528 66.0791L87.3761 59.9728L96.4151 57.1376H96.4276L100.267 56.3097Z" fill="#F39C12"/>
<path d="M56 84C72.0163 84 85 70.5685 85 54C85 37.4315 72.0163 24 56 24C39.9837 24 27 37.4315 27 54C27 70.5685 39.9837 84 56 84Z" fill="#F1C40F"/>
<path d="M111 97V82.783C102.162 71.344 85.9449 52 77.3156 52C69.115 52 54.0611 69.469 45 81.025V109H98.7511C102 109 105.115 107.736 107.412 105.485C109.709 103.235 111 100.183 111 97Z" fill="#16A37D"/>
<path d="M28.4091 69C21.5599 69 9.89882 81.6431 1 92.7138V96.6923C1 99.9565 2.28344 103.087 4.56797 105.395C6.85251 107.703 9.951 109 13.1818 109H68C68 109 56.4395 92.1354 44.9977 80.3077C38.8215 73.9231 32.6788 69 28.4091 69Z" fill="#118667"/>
<circle cx="99" cy="99" r="29" fill="#74B9FF"/>
<path d="M99 81C89.059 81 81 89.059 81 99C81 108.941 89.059 117 99 117C108.941 117 117 108.941 117 99C117 89.059 108.941 81 99 81ZM112 99C112 101.565 111.247 103.95 109.965 105.965L92.036 88.036C94.1151 86.7059 96.5318 85.9993 99 86C106.18 86 112 91.821 112 99ZM86 99C86 96.435 86.753 94.05 88.036 92.036L105.965 109.965C103.885 111.294 101.468 112 99 112C91.821 112 86 106.18 86 99Z" fill="#E74C3C"/>
</g>
<defs>
<clipPath id="clip0_1410_6043">
<rect width="130" height="130" fill="white"/>
</clipPath>
</defs>
</svg>
