<svg width="148" height="148" viewBox="0 0 148 148" fill="none" xmlns="http://www.w3.org/2000/svg">
<circle cx="74" cy="74" r="74" fill="#9CA4A9" fill-opacity="0.22"/>
<rect x="62" y="52" width="41" height="10" rx="5" fill="#16A37D"/>
<rect x="53" y="74" width="22" height="11" rx="5" fill="#F1C40F"/>
<rect x="55" y="96" width="37" height="9.99999" rx="5" fill="#F39C12"/>
<path d="M59 74C59 103.823 52.7534 128 45.0479 128C40.2534 128 41.9894 90.5681 21.878 92.21C18.5071 80.3728 20.7026 67.3553 20.7026 56.0884C45.0479 56.0884 37.3424 20 45.0479 20C52.7534 20 59 44.1766 59 74Z" fill="#FAFAFA"/>
<rect x="6" y="56" width="31" height="36" fill="#FAFAFA"/>
<path d="M56.5844 73.8637C56.5844 101.11 51.2696 123.197 44.7135 123.197C40.6343 123.197 42.1113 89 24.9999 90.5C22.1319 79.6858 23.9999 67.7933 23.9999 57.5C44.7135 57.5 38.1575 24.5304 44.7135 24.5304C51.2696 24.5304 56.5844 46.6177 56.5844 73.8637Z" fill="#74B9FF"/>
<rect x="5.89355" y="57.5556" width="31.6556" height="32.8889" fill="#74B9FF"/>
<path d="M92 74C92 103.823 98.2466 128 105.952 128C110.747 128 109.011 90.5681 129.122 92.21C132.493 80.3728 130.297 67.3553 130.297 56.0884C105.952 56.0884 113.658 20 105.952 20C98.2466 20 92 44.1766 92 74Z" fill="#FAFAFA"/>
<rect width="31" height="36" transform="matrix(-1 0 0 1 145 56)" fill="#FAFAFA"/>
<path d="M94.4156 73.8637C94.4156 101.11 99.7304 123.197 106.286 123.197C110.366 123.197 108.889 89 126 90.5C128.868 79.6858 127 67.7933 127 57.5C106.286 57.5 112.843 24.5304 106.286 24.5304C99.7304 24.5304 94.4156 46.6177 94.4156 73.8637Z" fill="#74B9FF"/>
<rect width="31.6556" height="32.8889" transform="matrix(-1 0 0 1 145.106 57.5556)" fill="#74B9FF"/>
<path d="M148 74C148 114.869 114.869 148 74 148C33.1309 148 0 114.869 0 74C0 33.1309 33.1309 0 74 0C114.869 0 148 33.1309 148 74ZM7.40456 74C7.40456 110.78 37.2204 140.595 74 140.595C110.78 140.595 140.595 110.78 140.595 74C140.595 37.2204 110.78 7.40456 74 7.40456C37.2204 7.40456 7.40456 37.2204 7.40456 74Z" fill="#74B9FF"/>
</svg>
